{"title":"Koyelaanchal 2014 Hindi DVDScrRIP GOPI SAHI @ICTV","uid":10127029,"size":346064808,"categoryP":"video","categoryS":"movies","magnet":"?xt=urn:btih:47c3da97261e3fca80f033b2b4e7e2abb92717b6&amp;dn=Koyelaanchal+2014+Hindi+DVDScrRIP+GOPI+SAHI+%40ICTV&amp;tr=udp%3A%2F%2Ftracker.openbittorrent.com%3A80&amp;tr=udp%3A%2F%2Fopen.demonii.com%3A1337&amp;tr=udp%3A%2F%2Ftracker.coppersurfer.tk%3A6969&amp;tr=udp%3A%2F%2Fexodus.desync.com%3A6969","seeders":0,"leechers":2,"uploader":"jatt13","files":1,"time":1399779783,"description":"\nVideo\nID                             : 1\nFormat                         : AVC\nFormat/Info                    : Advanced Video Codec\nFormat profile                 : &lt;a class=&quot;__cf_email__&quot; href=&quot;/cdn-cgi/l/email-protection&quot; data-cfemail=&quot;367b575f58767a021806&quot;&gt;[email&amp;#160;protected]&lt;/a&gt;&lt;script cf-hash='f9e31' type=&quot;text/javascript&quot;&gt;\n/* &lt;![CDATA[ */!function(){try{var t=&quot;currentScript&quot;in document?document.currentScript:function(){for(var t=document.getElementsByTagName(&quot;script&quot;),e=t.length;e--;)if(t[e].getAttribute(&quot;cf-hash&quot;))return t[e]}();if(t&amp;&amp;t.previousSibling){var e,r,n,i,c=t.previousSibling,a=c.getAttribute(&quot;data-cfemail&quot;);if(a){for(e=&quot;&quot;,r=parseInt(a.substr(0,2),16),n=2;a.length-n;n+=2)i=parseInt(a.substr(n,2),16)^r,e+=String.fromCharCode(i);e=document.createTextNode(e),c.parentNode.replaceChild(e,c)}}}catch(u){}}();/* ]]&gt; */&lt;/script&gt;\nFormat settings, CABAC         : Yes\nFormat settings, ReFrames      : 4 frames\nCodec ID                       : V_MPEG4/ISO/AVC\nDuration                       : 2h 18mn\nBit rate                       : 300 Kbps\nWidth                          : 640 pixels\nHeight                         : 272 pixels\nDisplay aspect ratio           : 2.35:1\nFrame rate mode                : Constant\nFrame rate                     : 29.970 fps\nColor space                    : YUV\nChroma subsampling             : 4:2:0\nBit depth                      : 8 bits\nScan type                      : Progressive\nBits/(Pixel*Frame)             : 0.058\nStream size                    : 292 MiB (88%)\nTitle                          : GOPI SAHI\nWriting library                : x264 core 130 r2273 b3065e6\nLanguage                       : Hindi\nDefault                        : Yes\nForced                         : No\nColor primaries                : BT.601 NTSC\nTransfer characteristics       : BT.709\nMatrix coefficients            : BT.601\n\nAudio\nID                             : 2\nFormat                         : MPEG Audio\nFormat version                 : Version 1\nFormat profile                 : Layer 3\nMode                           : Joint stereo\nMode extension                 : MS Stereo\nCodec ID                       : A_MPEG/L3\nCodec ID/Hint                  : MP3\nDuration                       : 2h 18mn\nBit rate mode                  : Constant\nBit rate                       : 32.0 Kbps\nChannel count                  : 2 channels\nSampling rate                  : 44.1 KHz\nCompression mode               : Lossy\nStream size                    : 31.7 MiB (10%)\nTitle                          : GOPI SAHI\nLanguage                       : Hindi\nDefault                        : Yes\nForced                         : No\n[IMG]http://i.imgur.com/Gl73uTZ.jpg[/IMG]\n[IMG]http://i.imgur.com/qSxfWvq.jpg[/IMG]\n[IMG]http://i.imgur.com/1V6JlHD.jpg[/IMG]\n[IMG]http://i.imgur.com/8lO1DZ3.jpg[/IMG]\n","torrent":{"xt":"urn:btih:47c3da97261e3fca80f033b2b4e7e2abb92717b6","amp;dn":"Koyelaanchal+2014+Hindi+DVDScrRIP+GOPI+SAHI+%40ICTV","amp;tr":["udp%3A%2F%2Ftracker.openbittorrent.com%3A80","udp%3A%2F%2Fopen.demonii.com%3A1337","udp%3A%2F%2Ftracker.coppersurfer.tk%3A6969","udp%3A%2F%2Fexodus.desync.com%3A6969"],"infoHash":"47c3da97261e3fca80f033b2b4e7e2abb92717b6","infoHashBuffer":{"type":"Buffer","data":[71,195,218,151,38,30,63,202,128,240,51,178,180,231,226,171,185,39,23,182]},"announce":[],"urlList":[]}}